<svg xmlns="http://www.w3.org/2000/svg" version="1.1" xmlns:xlink="http://www.w3.org/1999/xlink" xmlns:svgjs="http://svgjs.dev/svgjs" width="100%" height="100%" viewBox="0 0 1000 600"><rect width="1000" height="600" x="0" y="0" fill="#ccf381"/><g><circle r="166.66666666666666" cx="423.4283243815104" cy="445.6505545359439" fill="#4831d4" transform="matrix(0.48683275319882924,0,0,0.4868327531988293,0,83.04269797793437)"/><path d="M411.28790749474035 411.1187253061047L411.28790749474035 411.1187253061047L411.28790749474035 434.9830380147221L448.4233965974268 434.9830380147221Q450.9229006716461 434.9830380147221 452.2024087096393 435.81620603946186L452.2024087096393 435.81620603946186Q454.91020479004357 437.6908340951263 457.8560488775163 440.3093621728799Q460.7721369641054 442.9278902506334 464.0155410604138 446.5878783593117L464.0155410604138 446.5878783593117Q465.05700109133846 447.95665439995554 465.05700109133846 448.78982242469533L465.05700109133846 448.78982242469533Q465.05700109133846 449.71225845208573 464.0155410604138 450.8727424865447L464.0155410604138 450.8727424865447Q460.7721369641054 454.5327305952229 457.8560488775163 457.1512586729765Q454.91020479004357 459.76978675073 452.2024087096393 461.6444148063945L452.2024087096393 461.6444148063945Q450.7146086654612 462.4775828311342 448.4233965974268 462.4775828311342L448.4233965974268 462.4775828311342L411.28790749474035 462.4775828311342L411.28790749474035 515.1159483941569Q411.28790749474035 518.240328486931 409.97864345586356 519.4603245231572Q408.66937941698677 520.6505645584997 405.5449993242127 520.6505645584997L405.5449993242127 520.6505645584997L383.2577546624241 520.6505645584997Q380.1036185687664 520.6505645584997 378.79435452988963 519.4603245231572Q377.51484649189644 518.240328486931 377.51484649189644 515.1159483941569L377.51484649189644 515.1159483941569L377.51484649189644 398.6807169367754Q377.51484649189644 388.20660462576126 379.448986549328 382.1066244446308Q381.3831266067596 375.9768882626169 386.97725477286946 373.29884818309625Q392.57138293897924 370.65056410445914 403.34305525882905 370.65056410445914L403.34305525882905 370.65056410445914L452.70826072465985 370.65056410445914Q455.2375207997627 370.65056410445914 456.48727283687236 371.48373212919887L456.48727283687236 371.48373212919887Q459.19506891727656 373.3583601848634 462.14091300474934 375.9768882626169Q465.05700109133846 378.59541634037043 468.30040518764685 382.2554044490487L468.30040518764685 382.2554044490487Q469.34186521857157 383.62418048969255 469.34186521857157 384.45734851443234L469.34186521857157 384.45734851443234Q469.34186521857157 385.3797845418228 468.30040518764685 386.54026857628173L468.30040518764685 386.54026857628173Q465.05700109133846 390.20025668496 462.14091300474934 392.8187847627135Q459.19506891727656 395.43731284046703 456.48727283687236 397.3119408961315L456.48727283687236 397.3119408961315Q455.0292287935778 398.1451089208713 452.70826072465985 398.1451089208713L452.70826072465985 398.1451089208713L423.22006384904904 398.1451089208713Q416.31667164406247 398.1451089208713 413.7874115689596 401.090953008344Q411.28790749474035 404.00704109493313 411.28790749474035 411.1187253061047Z " fill="#ccf381" transform="matrix(0.48683275319882924,0,0,0.4868327531988293,0,83.04269797793437)"/><path d="M757.1288807046167 459.0596091319237L757.9477537646733 459.0596091319237Q759.3807816197722 453.5029705101116 761.0770186727464 448.12180468688297Q762.7732557257207 442.7113933972238 765.2591203723209 436.0434270510492L765.2591203723209 436.0434270510492Q767.4232848881845 430.07735189920874 770.4940588633965 422.29805782867174Q773.5940783050391 414.5480092245653 777.0157978774182 406.53475142258355Q780.4667629162277 398.49224815417125 783.7715006228846 391.6195635429825Q787.0469928631105 384.7176334653632 789.737575774725 380.6232681650806L789.737575774725 380.6232681650806Q793.0130680149509 375.56380247258846 796.8734695837888 373.1071832924189Q800.7338711526268 370.6505641122493 808.220710558858 370.6505641122493L808.220710558858 370.6505641122493L821.70287058336 370.6505641122493Q827.054790940158 370.6505641122493 830.6812287775513 372.2298192995012Q834.3369120813752 373.8383199531836 835.8869218021964 379.77514963859346L835.8869218021964 379.77514963859346Q837.0274949929894 384.22046053604316 838.05108631806 392.730891267345Q839.0746776431308 401.2705674650773 839.8058143038954 416.3904736096925Q840.5077054982296 431.5103797543077 840.917142028258 455.1992075630858Q841.3265785582862 478.9172808382945 841.3265785582862 513.7486313571276L841.3265785582862 513.7486313571276Q841.3265785582862 515.6203412086853 840.0982689682014 516.8486507987701Q838.8699593781166 518.0769603888549 837.1152313922812 518.0769603888549L837.1152313922812 518.0769603888549L813.6896127813784 518.0769603888549Q811.934884795543 518.0769603888549 810.7065752054582 516.8486507987701Q809.4782656153734 515.6203412086853 809.4782656153734 513.6608949578358L809.4782656153734 513.6608949578358Q809.4782656153734 486.521102110248 809.4782656153734 467.5992853296561Q809.4782656153734 448.6774685490642 809.361283749651 436.2481453160633Q809.2443018839288 423.78957661663185 809.0980745517757 416.44896454255365Q808.9518472196228 409.0791070020449 808.6301470888864 405.07247810105406L808.6301470888864 405.07247810105406L808.0159922938437 405.07247810105406Q802.576335537754 417.6187831997773 796.4055421208996 433.0018985422678Q790.2347487040449 448.35576841832767 784.385655417927 464.67473868659704Q778.5073166653783 480.96446348843585 773.8865329693449 496.4938061630793L773.8865329693449 496.4938061630793Q772.5412415135379 501.1145898591126 770.5525497962576 502.89856331137855Q768.5346126125469 504.7117822300752 761.4572097363441 504.7117822300752L761.4572097363441 504.7117822300752L749.612795831955 504.7117822300752Q743.5589842808229 504.7117822300752 741.5410470971121 503.16177250925386Q739.552355379832 501.6117627884326 738.1193275247331 496.4938061630793L738.1193275247331 496.4938061630793Q734.7268534187846 484.7663741244126 730.6032426520713 471.6936506299387Q726.4796318853581 458.65017260189546 722.1220573872001 446.0453765703111Q717.7644828890423 433.46982600515724 713.6993630551901 422.82447622442237Q709.6342432213381 412.1791264436875 706.4464873804038 405.07247810105406L706.4464873804038 405.07247810105406L705.8323325853614 405.07247810105406Q705.0134595253048 417.20934666974904 704.3993047302624 434.58115372951966Q703.7559044687895 451.9529607892903 703.4049588716224 472.3370508914117Q703.0540132744553 492.6918955271026 702.937031408733 513.8656132228499L702.937031408733 513.8656132228499Q702.937031408733 515.7080776079771 701.7087218186482 516.9071417316313Q700.4804122285634 518.0769603888549 698.725684242728 518.0769603888549L698.725684242728 518.0769603888549L677.6397029462723 518.0769603888549Q675.9142204268676 518.0769603888549 674.6859108367828 516.8486507987701Q673.4283557802673 515.6203412086853 673.4283557802673 513.6608949578358L673.4283557802673 513.6608949578358Q673.5453376459898 458.8548908669096 675.6510112289923 426.15845939750966Q677.7566848119948 393.4620279281097 680.2133039921644 382.3487506844854L680.2133039921644 382.3487506844854Q681.880295578708 375.06662954326845 686.0331518118517 372.84397409454357Q690.1860080449956 370.6505641122493 695.5379284017936 370.6505641122493L695.5379284017936 370.6505641122493L712.20784426723 370.6505641122493Q717.852219288334 370.6505641122493 720.4843112670872 372.6392558295295Q723.0871577794096 374.65719301324015 726.8890684153864 380.4185499000664L726.8890684153864 380.4185499000664Q729.1702147969725 383.8110240060149 732.2994797050455 390.5959722179118Q735.4287446131187 397.38092042980884 738.8212187190672 405.65738742966585Q742.2136928250156 413.9338544295229 745.2552213337971 422.0056031643658Q748.2967498425785 430.07735189920874 750.256196093428 436.0434270510492L750.256196093428 436.0434270510492Q752.3033787435693 442.0972386021814 754.0581067294047 447.8001045561465Q755.7835892488097 453.5029705101116 757.1288807046167 459.0596091319237L757.1288807046167 459.0596091319237ZM922.2487841717295 520.6505614347468L922.2487841717295 520.6505614347468Q904.8769771119589 520.6505614347468 892.0382173489297 515.0354318800735Q879.1702121194701 509.4495477918308 872.0928092432671 497.60513388744175Q864.9861609006336 485.78996544948325 864.9861609006336 467.07286693390546L864.9861609006336 467.07286693390546Q864.9861609006336 438.9972191605388 879.3749303844841 424.6084496766884Q893.7636998683345 410.2196801928379 917.6280004756961 410.2196801928379L917.6280004756961 410.2196801928379Q933.1573431503398 410.2196801928379 943.8904293303663 415.7763188146501Q954.6527609768236 421.33295743646227 960.2386450650663 431.10094322427943Q965.8537746197396 440.8689290120966 965.8537746197396 453.4152341108198L965.8537746197396 453.4152341108198Q965.8537746197396 465.6398390788065 959.5659993371628 470.4653410398539Q953.3074695210164 475.2908430009013 941.2875828180438 475.2908430009013L941.2875828180438 475.2908430009013L897.1561739742831 475.2908430009013Q897.9750470343395 485.9069473152056 904.93546804482 491.4343404705872Q911.8666435888699 496.99097909239936 923.7987938925507 496.99097909239936L923.7987938925507 496.99097909239936Q933.2450795496316 496.99097909239936 938.9479455035967 494.1834143150627Q944.6800569239922 491.3466040712954 946.9319578391478 489.7088579511824L946.9319578391478 489.7088579511824Q948.8914040899972 488.24658462965283 951.3480232701668 488.3635664953752L951.3480232701668 488.3635664953752Q953.3074695210164 488.3635664953752 956.9631528248401 489.12394862257054Q960.5895906622334 489.9135762161965 964.2160284996266 491.9607588663378L964.2160284996266 491.9607588663378Q966.760384079088 493.306050322145 966.760384079088 495.6749331030228L966.760384079088 495.6749331030228Q966.760384079088 496.99097909239936 966.2632111497678 499.4768437389995L966.2632111497678 499.4768437389995Q965.9415110190314 500.90987159409843 965.2396198246972 503.6296999721433Q964.5084831639324 506.3495283501882 963.3679099731394 508.71841113106603L963.3679099731394 508.71841113106603Q962.753755178097 509.85898432185905 961.4377091887204 510.8825756469297L961.4377091887204 510.8825756469297Q959.3612810721486 512.3156035020286 954.7989883089765 514.6844862829065Q950.2074500793738 517.0533690637842 942.3111741431144 518.8373425160503Q934.3856527404246 520.6505614347468 922.2487841717295 520.6505614347468ZM896.9514557092689 454.2341071708763L896.9514557092689 454.2341071708763L930.4667602387253 454.2341071708763Q935.7309441962316 454.2341071708763 935.7309441962316 449.4086052098289L935.7309441962316 449.4086052098289Q935.7309441962316 442.0972386021814 931.139405966629 437.09626384255046Q926.577113203457 432.1245345493501 917.4232822106821 432.1245345493501L917.4232822106821 432.1245345493501Q907.4505781578507 432.1245345493501 902.7713035289564 438.5000462312188Q898.0920289000619 444.87555791308745 896.9514557092689 454.2341071708763ZM1090.2639888154708 452.5963610507633L1090.2639888154708 452.5963610507633L1090.2639888154708 512.6373036327651Q1090.2639888154708 515.7080776079771 1088.9771882925247 516.9071417316313Q1087.6903877695788 518.0769603888549 1084.5903683279362 518.0769603888549L1084.5903683279362 518.0769603888549L1063.4166506321887 518.0769603888549Q1060.3458766569768 518.0769603888549 1059.0590761340309 516.9071417316313Q1057.772275611085 515.7080776079771 1057.772275611085 512.6373036327651L1057.772275611085 512.6373036327651L1057.772275611085 457.9190359411307Q1057.772275611085 446.71802229821463 1053.0345100493294 441.57082020643077Q1048.2967444875737 436.45286358107745 1040.1957502863002 436.45286358107745L1040.1957502863002 436.45286358107745Q1032.065510618596 436.45286358107745 1027.6786906540076 439.9330740863177Q1023.3211161558495 443.4425300579885 1020.9522333749717 448.765204948356L1020.9522333749717 448.765204948356L1020.9522333749717 512.6373036327651Q1020.9522333749717 515.7080776079771 1019.6654328520258 516.9071417316313Q1018.3786323290797 518.0769603888549 1015.3078583538679 518.0769603888549L1015.3078583538679 518.0769603888549L994.1341406581205 518.0769603888549Q991.0341212164778 518.0769603888549 989.747320693532 516.9071417316313Q988.4605201705858 515.7080776079771 988.4605201705858 512.6373036327651L988.4605201705858 512.6373036327651L988.4605201705858 426.48015952824613Q988.4605201705858 423.99429488164594 989.4841114956566 422.6490034258388L989.4841114956566 422.6490034258388Q991.6482760115202 419.78294771564094 994.6898045203018 416.79991013972074Q997.7313330290831 413.81687256380053 1002.1473984601023 410.4243984578521L1002.1473984601023 410.4243984578521Q1003.4926899159093 409.40080713278144 1004.7209995059941 409.40080713278144L1004.7209995059941 409.40080713278144Q1005.8323272303567 409.40080713278144 1007.2946005518861 410.4243984578521L1007.2946005518861 410.4243984578521Q1011.5936841171829 413.81687256380053 1014.6937035588253 416.9168920054431Q1017.7644775340375 419.9876659806551 1020.1333603149151 423.29240368731183L1020.1333603149151 423.29240368731183L1020.6597787106657 423.29240368731183Q1022.3852612300707 421.0112573057258 1025.8947172017415 417.998974263375Q1029.3749277069817 414.9574457545936 1035.7211939224198 412.58856297371574Q1042.0382146714273 410.2196801928379 1051.8939368585363 410.2196801928379L1051.8939368585363 410.2196801928379Q1061.5741862470616 410.2196801928379 1070.3185807098082 414.13857269453706Q1079.0337297061242 418.0282197298055 1084.6488592607973 427.2990325883027Q1090.2639888154708 436.5405999803692 1090.2639888154708 452.5963610507633ZM1159.6634806552615 520.6505614347468L1159.6634806552615 520.6505614347468Q1125.3293030657485 520.6505614347468 1125.3293030657485 484.97109238942676L1125.3293030657485 484.97109238942676L1125.3293030657485 436.7453182453834L1113.6896074263734 436.7453182453834Q1110.6188334511614 436.7453182453834 1109.4197693275073 435.45851772243736Q1108.2499506702836 434.1717171994914 1108.2499506702836 431.10094322427943L1108.2499506702836 431.10094322427943L1108.2499506702836 418.43765625983383Q1108.2499506702836 415.36688228462185 1109.4197693275073 414.08008176167584Q1110.6188334511614 412.7932812387299 1113.6896074263734 412.7932812387299L1113.6896074263734 412.7932812387299L1125.3293030657485 412.7932812387299L1125.3293030657485 396.2403472390158Q1125.3293030657485 393.78372805884624 1126.352894390819 392.43843660303907L1126.352894390819 392.43843660303907Q1130.651977956116 386.7940615819351 1138.9869358888343 380.2138316350523L1138.9869358888343 380.2138316350523Q1140.419963743933 379.16099484355107 1141.560536934726 379.16099484355107L1141.560536934726 379.16099484355107Q1142.7888465248109 379.16099484355107 1144.0171561148957 380.2138316350523L1144.0171561148957 380.2138316350523Q1148.4624670123453 383.6063057410008 1151.4747500546962 386.58934331692103Q1154.5162785634777 389.5431354264106 1156.6804430793413 392.43843660303907L1156.6804430793413 392.43843660303907Q1157.704034404412 393.78372805884624 1157.704034404412 396.2403472390158L1157.704034404412 396.2403472390158L1157.704034404412 412.7932812387299L1175.8947145242391 412.7932812387299Q1178.9947339658816 412.7932812387299 1180.1645526231052 414.08008176167584Q1181.3636167467594 415.36688228462185 1181.3636167467594 418.43765625983383L1181.3636167467594 418.43765625983383L1181.3636167467594 431.10094322427943Q1181.3636167467594 434.1717171994914 1180.1645526231052 435.45851772243736Q1178.9947339658816 436.7453182453834 1175.8947145242391 436.7453182453834L1175.8947145242391 436.7453182453834L1157.704034404412 436.7453182453834L1157.704034404412 479.3267173683228Q1157.704034404412 495.76266950231457 1169.6361847080927 495.76266950231457L1169.6361847080927 495.76266950231457Q1171.47864909322 495.76266950231457 1173.0286588140411 495.4117239051475Q1174.5786685348626 495.0315328415498 1175.689996259225 494.62209631152155L1175.689996259225 494.62209631152155Q1177.8541607750885 493.803223251465 1178.7315247680065 494.0079415164791Q1179.608888760924 494.21265978149324 1180.310779955258 496.2890878980652L1180.310779955258 496.2890878980652L1186.2768551070985 512.2278671027368Q1187.2127100328773 514.7722226821982 1185.0485455170137 515.9127958729912L1185.0485455170137 515.9127958729912Q1183.4985357961925 516.643932533756 1177.5909515772132 518.6326242510361Q1171.6833673582341 520.6505614347468 1159.6634806552615 520.6505614347468ZM1253.9508644274845 520.6505614347468L1253.9508644274845 520.6505614347468Q1228.0393811699814 520.6505614347468 1212.9194750253664 506.87594674593885Q1197.7995688807512 493.10133205713083 1197.7995688807512 465.84455734382067L1197.7995688807512 465.84455734382067Q1197.7995688807512 437.88589143617634 1213.4751388875475 424.05278581450716Q1229.150708894344 410.2196801928379 1255.3838922825835 410.2196801928379L1255.3838922825835 410.2196801928379Q1280.681220745044 410.2196801928379 1295.888863288951 423.848067549493Q1311.096505832858 437.4764549061481 1311.096505832858 464.0020929586935L1311.096505832858 464.0020929586935Q1311.096505832858 491.63905873560134 1295.888863288951 506.1448100851741Q1280.681220745044 520.6505614347468 1253.9508644274845 520.6505614347468ZM1254.974455752555 495.76266950231457L1254.974455752555 495.76266950231457Q1266.263205794763 495.76266950231457 1272.0245626815893 488.7145120925423Q1277.7859195684155 481.66635468277 1277.7859195684155 464.6162477537359L1277.7859195684155 464.6162477537359Q1277.7859195684155 448.35576841832767 1271.9953172151586 441.7462930050143Q1266.1754693954713 435.1075721252703 1254.769737487541 435.1075721252703L1254.769737487541 435.1075721252703Q1243.773442109639 435.1075721252703 1237.427175894201 442.2434659343343Q1231.1101551451934 449.4086052098289 1231.1101551451934 465.4351208137924L1231.1101551451934 465.4351208137924Q1231.1101551451934 482.19277307852064 1237.1347212298951 488.9777212904176Q1243.130041848166 495.76266950231457 1254.974455752555 495.76266950231457ZM1365.69779165877 424.7254315424107L1365.69779165877 432.3292528143642L1366.1072281887984 432.3292528143642Q1373.8280313264743 410.9508168536027 1393.8611758314285 410.9508168536027L1393.8611758314285 410.9508168536027Q1396.4347768773202 410.9508168536027 1398.0725229974335 411.214026051478Q1399.739514583977 411.4479897829227 1400.3536693790195 411.65270804793687L1400.3536693790195 411.65270804793687Q1401.903679099841 412.1791264436875 1401.903679099841 414.0215908288147L1401.903679099841 414.0215908288147L1401.903679099841 438.79250089552465Q1401.903679099841 441.980256736459 1398.189504863156 440.54722888136007L1398.189504863156 440.54722888136007Q1396.9611952730709 440.05005595204005 1394.6508034250544 439.46514662342827Q1392.340411577038 438.90948276124703 1388.2168008103247 438.90948276124703L1388.2168008103247 438.90948276124703Q1377.6299419624509 438.90948276124703 1371.6638668106104 446.6595313653535Q1365.69779165877 454.43882543589046 1365.69779165877 467.80400359467023L1365.69779165877 467.80400359467023L1365.69779165877 512.6373036327651Q1365.69779165877 515.7080776079771 1364.410991135824 516.9071417316313Q1363.1241906128782 518.0769603888549 1360.0534166376663 518.0769603888549L1360.0534166376663 518.0769603888549L1338.8504534754882 518.0769603888549Q1335.7796795002762 518.0769603888549 1334.49287897733 516.9071417316313Q1333.2060784543844 515.7080776079771 1333.2060784543844 512.6373036327651L1333.2060784543844 512.6373036327651L1333.2060784543844 426.48015952824613Q1333.2060784543844 423.99429488164594 1334.2296697794548 422.6490034258388L1334.2296697794548 422.6490034258388Q1336.3938342953186 419.78294771564094 1339.4353628041001 416.79991013972074Q1342.4768913128812 413.81687256380053 1346.8929567439006 410.4243984578521L1346.8929567439006 410.4243984578521Q1347.711829803957 409.8102436628097 1348.5307028640134 409.60552539779553Q1349.3495759240702 409.40080713278144 1349.9637307191124 409.40080713278144L1349.9637307191124 409.40080713278144Q1351.3967585742114 409.40080713278144 1352.859031895741 410.4243984578521L1352.859031895741 410.4243984578521Q1361.3694626270428 417.12161027045727 1364.761936732991 421.8301303657823L1364.761936732991 421.8301303657823Q1365.69779165877 423.0876854222977 1365.69779165877 424.7254315424107L1365.69779165877 424.7254315424107ZM1533.712996302511 468.8275949197409L1533.712996302511 468.8275949197409Q1531.0224133908969 468.8275949197409 1529.1799490057697 467.4823034639337L1529.1799490057697 467.4823034639337Q1527.22050275492 466.16625747455714 1524.5591653097365 463.680392827957Q1521.868582398122 461.2237736477874 1518.593090157896 457.6265812768248L1518.593090157896 457.6265812768248Q1517.3647805678113 456.1935534217259 1517.3647805678113 455.05298023093286L1517.3647805678113 455.05298023093286Q1517.3647805678113 453.91240704013984 1518.593090157896 452.4793791850409L1518.593090157896 452.4793791850409Q1524.9686018397647 445.2849944431157 1530.2035403308405 441.89252033716724L1530.2035403308405 441.89252033716724Q1531.431849920925 441.0736472771107 1533.712996302511 441.0736472771107L1533.712996302511 441.0736472771107Q1540.7026627794223 441.0736472771107 1545.791373938345 435.80946331960445Q1550.8800850972677 430.57452482852875 1550.6753668322538 418.8470927898621L1550.6753668322538 418.8470927898621Q1550.558384966531 406.2130512918471 1544.446082482538 401.18283106578554Q1538.3337799985445 396.12336537329344 1527.7469211506707 396.12336537329344L1527.7469211506707 396.12336537329344L1522.804437323901 396.12336537329344Q1516.0194891120043 396.12336537329344 1513.5628699318347 399.0186665499219Q1511.0770052852342 401.8847222601197 1511.0770052852342 408.8743887370308L1511.0770052852342 408.8743887370308L1511.0770052852342 512.6373036327651Q1511.0770052852342 515.7080776079771 1509.7902047622883 516.9071417316313Q1508.5034042393424 518.0769603888549 1505.4326302641305 518.0769603888549L1505.4326302641305 518.0769603888549L1483.5277759076182 518.0769603888549Q1480.4277564659758 518.0769603888549 1479.1702014094603 516.9071417316313Q1477.8834008865144 515.7080776079771 1477.8834008865144 512.6373036327651L1477.8834008865144 512.6373036327651L1477.8834008865144 398.1997934898653Q1477.8834008865144 387.9053893062976 1479.7843562045027 381.9100686880265Q1481.685311522491 375.885502603325 1487.183459211442 373.2534106245718Q1492.6816069003928 370.6505641122493 1503.2684657482666 370.6505641122493L1503.2684657482666 370.6505641122493L1527.7469211506707 370.6505641122493Q1557.2555967791366 370.6505641122493 1571.4396479979725 382.2025233523325Q1585.623699216809 393.78372805884624 1585.623699216809 417.6187831997773L1585.623699216809 417.6187831997773Q1585.623699216809 435.5170086552986 1578.1661052770085 446.835004163937Q1570.708511337208 458.12375420614484 1558.8348519663882 463.47567456294286Q1546.9611925955685 468.8275949197409 1533.712996302511 468.8275949197409ZM1638.148556926149 424.7254315424107L1638.148556926149 432.3292528143642L1638.587238922608 432.3292528143642Q1646.2787965938533 410.9508168536027 1666.341186565238 410.9508168536027L1666.341186565238 410.9508168536027Q1668.9147876111301 410.9508168536027 1670.5525337312433 411.214026051478Q1672.190279851356 411.4479897829227 1672.8044346463987 411.65270804793687L1672.8044346463987 411.65270804793687Q1674.3544443672197 412.1791264436875 1674.3544443672197 414.0215908288147L1674.3544443672197 414.0215908288147L1674.3544443672197 438.79250089552465Q1674.3544443672197 441.980256736459 1670.6402701305349 440.54722888136007L1670.6402701305349 440.54722888136007Q1669.41196054045 440.05005595204005 1667.1015686924336 439.46514662342827Q1664.791176844417 438.90948276124703 1660.6675660777034 438.90948276124703L1660.6675660777034 438.90948276124703Q1650.08070722983 438.90948276124703 1644.1146320779897 446.6595313653535Q1638.148556926149 454.43882543589046 1638.148556926149 467.80400359467023L1638.148556926149 467.80400359467023L1638.148556926149 512.6373036327651Q1638.148556926149 515.7080776079771 1636.8910018696338 516.9071417316313Q1635.6042013466877 518.0769603888549 1632.504181905045 518.0769603888549L1632.504181905045 518.0769603888549L1611.3304642092978 518.0769603888549Q1608.2304447676554 518.0769603888549 1606.9436442447095 516.9071417316313Q1605.686089188194 515.7080776079771 1605.686089188194 512.6373036327651L1605.686089188194 512.6373036327651L1605.686089188194 426.48015952824613Q1605.686089188194 423.99429488164594 1606.7096805132644 422.6490034258388L1606.7096805132644 422.6490034258388Q1608.8738450291282 419.78294771564094 1611.886128071479 416.79991013972074Q1614.9276565802604 413.81687256380053 1619.3437220112794 410.4243984578521L1619.3437220112794 410.4243984578521Q1620.1625950713362 409.8102436628097 1620.9814681313926 409.60552539779553Q1621.8003411914494 409.40080713278144 1622.4437414529223 409.40080713278144L1622.4437414529223 409.40080713278144Q1623.876769308021 409.40080713278144 1625.30979716312 410.4243984578521L1625.30979716312 410.4243984578521Q1633.8494733608525 417.12161027045727 1637.2419474668009 421.8301303657823L1637.2419474668009 421.8301303657823Q1638.148556926149 423.0876854222977 1638.148556926149 424.7254315424107L1638.148556926149 424.7254315424107ZM1740.1567438360478 520.6505614347468L1740.1567438360478 520.6505614347468Q1714.245260578545 520.6505614347468 1699.12535443393 506.87594674593885Q1684.005448289315 493.10133205713083 1684.005448289315 465.84455734382067L1684.005448289315 465.84455734382067Q1684.005448289315 437.88589143617634 1699.7102637625414 424.05278581450716Q1715.385833769338 410.2196801928379 1741.589771691147 410.2196801928379L1741.589771691147 410.2196801928379Q1766.887100153608 410.2196801928379 1782.0947426975147 423.848067549493Q1797.331630707852 437.4764549061481 1797.331630707852 464.0020929586935L1797.331630707852 464.0020929586935Q1797.331630707852 491.63905873560134 1782.0947426975147 506.1448100851741Q1766.887100153608 520.6505614347468 1740.1567438360478 520.6505614347468ZM1741.1803351611186 495.76266950231457L1741.1803351611186 495.76266950231457Q1752.498330669757 495.76266950231457 1758.2596875565835 488.7145120925423Q1764.02104444341 481.66635468277 1764.02104444341 464.6162477537359L1764.02104444341 464.6162477537359Q1764.02104444341 448.35576841832767 1758.2011966237221 441.7462930050143Q1752.3813488040348 435.1075721252703 1740.9756168961046 435.1075721252703L1740.9756168961046 435.1075721252703Q1729.9793215182028 435.1075721252703 1723.6623007691953 442.2434659343343Q1717.316034553757 449.4086052098289 1717.316034553757 465.4351208137924L1717.316034553757 465.4351208137924Q1717.316034553757 482.19277307852064 1723.3406006384587 488.9777212904176Q1729.36516672316 495.76266950231457 1741.1803351611186 495.76266950231457Z " fill="#4831d4" transform="matrix(0.48683275319882924,0,0,0.4868327531988293,0,83.04269797793437)"/></g></svg>